HIERARCHY
ROOT Hips
{
	OFFSET -3.958830 18.904000 13.208200
	CHANNELS 6 Xposition Yposition Zposition Zrotation Yrotation Xrotation 
	JOINT LHipJoint
	{
		OFFSET 0.000000 0.000000 0.000000
		CHANNELS 3 Zrotation Yrotation Xrotation
		JOINT LeftUpLeg
		{
			OFFSET 1.800000 -1.400000 0.085000
			CHANNELS 3 Zrotation Yrotation Xrotation
			JOINT LeftLeg
			{
				OFFSET 2.215000 -6.000000 0.000000
				CHANNELS 3 Zrotation Yrotation Xrotation
				JOINT LeftFoot
				{
					OFFSET 2.500000 -6.900000 0.000000
					CHANNELS 3 Zrotation Yrotation Xrotation
					JOINT LeftToeBase
					{
						OFFSET 0.200000 -0.500000 1.950000
						CHANNELS 3 Zrotation Yrotation Xrotation
						End Site
						{
							OFFSET 0.000000 0.000000 0.000000
						}
					}
				}
			}
		}
	}
	JOINT RHipJoint
	{
		OFFSET 0.000000 0.000000 0.000000
		CHANNELS 3 Zrotation Yrotation Xrotation
		JOINT RightUpLeg
		{
			OFFSET -1.800000 -1.400000 0.085000
			CHANNELS 3 Zrotation Yrotation Xrotation
			JOINT RightLeg
			{
				OFFSET -2.215000 -6.000000 0.000000
				CHANNELS 3 Zrotation Yrotation Xrotation
				JOINT RightFoot
				{
					OFFSET -2.500000 -6.900000 0.000000
					CHANNELS 3 Zrotation Yrotation Xrotation
					JOINT RightToeBase
					{
						OFFSET -0.200000 -0.500000 1.950000
						CHANNELS 3 Zrotation Yrotation Xrotation
						End Site
						{
							OFFSET 0.000000 0.000000 0.000000
						}
					}
				}
			}
		}
	}
	JOINT LowerBack
	{
		OFFSET 0.000000 0.000000 0.000000
		CHANNELS 3 Zrotation Yrotation Xrotation
		JOINT Spine
		{
			OFFSET -0.087000 1.940000 -0.288900
			CHANNELS 3 Zrotation Yrotation Xrotation
			JOINT Spine1
			{
				OFFSET 0.000000 1.950000 0.060000
				CHANNELS 3 Zrotation Yrotation Xrotation
				JOINT Neck
				{
					OFFSET 0.000000 0.000000 0.000000
					CHANNELS 3 Zrotation Yrotation Xrotation
					JOINT Neck1
					{
						OFFSET 0.000000 1.600000 0.340000
						CHANNELS 3 Zrotation Yrotation Xrotation
						JOINT Head
						{
							OFFSET 0.000000 1.667000 -0.240000
							CHANNELS 3 Zrotation Yrotation Xrotation
							End Site
							{
								OFFSET 0.000000 0.000000 0.000000
							}
						}
					}
				}
				JOINT LeftShoulder
				{
					OFFSET 0.000000 0.000000 0.000000
					CHANNELS 3 Zrotation Yrotation Xrotation
					JOINT LeftArm
					{
						OFFSET 2.700000 1.550000 -0.730000
						CHANNELS 3 Zrotation Yrotation Xrotation
						JOINT LeftForeArm
						{
							OFFSET 5.450000 0.000000 0.000000
							CHANNELS 3 Zrotation Yrotation Xrotation
							JOINT LeftHand
							{
								OFFSET 3.450000 0.000000 0.000000
								CHANNELS 3 Zrotation Yrotation Xrotation
								JOINT LeftHandIndex1
								{
									OFFSET 0.750000 0.000000 0.000000
									CHANNELS 3 Zrotation Yrotation Xrotation
									End Site
									{
										OFFSET 0.000000 0.000000 0.000000
									}
								}
							}
						}
					}
				}
				JOINT RightShoulder
				{
					OFFSET 0.000000 0.000000 0.000000
					CHANNELS 3 Zrotation Yrotation Xrotation
					JOINT RightArm
					{
						OFFSET -2.700000 1.550000 -0.730000
						CHANNELS 3 Zrotation Yrotation Xrotation
						JOINT RightForeArm
						{
							OFFSET -5.450000 0.000000 0.000000
							CHANNELS 3 Zrotation Yrotation Xrotation
							JOINT RightHand
							{
								OFFSET -3.450000 0.000000 0.000000
								CHANNELS 3 Zrotation Yrotation Xrotation
								JOINT RightHandIndex1
								{
									OFFSET -0.750000 0.000000 0.000000
									CHANNELS 3 Zrotation Yrotation Xrotation
									End Site
									{
										OFFSET 0.000000 0.000000 0.000000
									}
								}
							}
						}
					}
				}
			}
		}
	}
}
MOTION
Frames: 4
Frame Time: 0.016667
-0.403370 17.443830 -2.099970 -4.613820 16.001727 -9.630374 -14.396314 12.587936 1.835250 1.938239 1.574319 1.646964 7.228636 3.594822 20.626199 -0.149038 4.060084 2.924508 0.436240 0.545880 0.423460 19.015155 -11.851416 3.127539 -29.044852 0.471874 11.060760 6.157874 -7.034034 4.878330 -1.020375 -6.290205 1.975795 0.327480 -0.327130 0.032860 -6.220626 0.893719 -7.089672 20.326343 2.745132 7.185142 -10.696874 3.426685 30.295000 7.114360 -10.142749 -25.773325 -34.980155 28.988455 49.765608 -7.259810 17.493160 -11.774220 -36.751088 -37.492529 15.374563 -43.584195 -7.326584 -0.489596 3.950956 -8.960430 -0.841947 -3.239960 3.020888 0.455560 -0.243460 0.426400 -0.064070 26.586947 48.925183 21.463015 29.848320 38.329333 10.489286 172.724501 68.348767 163.552148 1.839627 -1.147159 -0.003920 0.158230 -0.069410 -0.163490 
-0.443060 17.455150 -2.087280 -4.555098 15.580320 -9.422119 -14.384879 12.554739 1.814225 2.572793 1.679424 1.995410 6.271337 3.848325 19.632169 -0.175731 4.055106 2.931392 0.426960 0.532640 0.417920 19.037110 -11.830551 3.141215 -28.830556 0.439970 11.041426 5.997418 -6.916139 4.384578 -1.016317 -6.287330 1.976715 0.332090 -0.312070 0.035220 -6.242043 0.925395 -7.065890 20.120581 2.786529 6.923579 -10.750290 3.552017 30.607372 7.064584 -10.222756 -25.833272 -35.495404 29.449053 49.188400 -7.480100 17.742700 -11.565870 -36.568181 -37.612946 15.515341 -43.510206 -7.545223 -0.664814 5.008552 -9.421098 -0.974412 -3.259532 3.026563 0.453680 -0.229070 0.413640 -0.069560 26.593896 49.172466 21.377595 29.714403 38.684330 10.888986 171.843194 68.191613 162.659435 1.821519 -1.119375 -0.017690 0.164860 -0.055160 -0.168280 
-0.478980 17.466830 -2.078090 -4.660700 14.811769 -9.410581 -14.372312 12.528313 1.793254 3.350043 1.810125 2.487823 5.338399 4.115121 18.741801 -0.204815 4.088663 2.920902 0.408670 0.512560 0.407750 19.058049 -11.809971 3.154224 -28.656627 0.373525 10.887612 5.965011 -6.830066 3.958119 -1.004258 -6.280387 1.977637 0.335660 -0.296760 0.033020 -6.250847 0.950854 -7.044149 20.128331 2.765760 6.794015 -10.699831 3.541430 31.096347 7.126427 -10.224534 -26.024121 -36.083918 30.123089 48.735790 -7.865960 18.181450 -11.344470 -36.150245 -38.041542 15.784938 -43.756848 -7.990152 -0.744025 6.249435 -9.708044 -1.119639 -3.284293 3.024119 0.454660 -0.212010 0.397920 -0.082550 26.195607 49.664515 21.306341 29.275238 39.149974 11.305334 172.237732 67.824172 163.340077 1.800495 -1.115354 -0.038340 0.174330 -0.032560 -0.177430 
-0.510640 17.473710 -2.073760 -4.730342 14.551445 -9.323425 -14.360777 12.505103 1.780343 3.936561 1.859798 2.685376 4.625691 4.285896 18.000946 -0.214458 4.085871 2.925160 0.404330 0.506680 0.406810 19.074550 -11.803997 3.161830 -28.495193 0.311135 10.819103 5.953898 -6.778144 3.703093 -1.003476 -6.273744 1.980695 0.336190 -0.293360 0.033110 -6.275638 0.989170 -7.034007 20.159446 2.758539 6.670326 -10.841827 3.587727 31.340449 7.165747 -10.203269 -26.105083 -36.186606 30.265081 48.709406 -8.080060 18.274830 -11.227920 -35.976086 -38.126239 15.887470 -43.708156 -8.303698 -0.897828 7.246784 -9.956018 -1.240788 -3.293184 3.029675 0.453590 -0.206820 0.393640 -0.085590 25.997848 49.756775 21.297397 29.360243 39.327602 11.437626 172.564045 67.758931 163.727227 1.792988 -1.119503 -0.043080 0.175860 -0.027700 -0.180080 
